<svg xmlns="http://www.w3.org/2000/svg" width="400" height="400" viewBox="0 0 400 400" role="img" aria-label="Earth">
  <defs>
    <radialGradient id="ocean" cx="35%" cy="35%" r="70%">
      <stop offset="0%" stop-color="#6fd3ff" />
      <stop offset="60%" stop-color="#2b7bbd" />
      <stop offset="100%" stop-color="#1b4f8f" />
    </radialGradient>
    <linearGradient id="land" x1="0" y1="0" x2="1" y2="1">
      <stop offset="0%" stop-color="#5be37d" />
      <stop offset="100%" stop-color="#1f9d55" />
    </linearGradient>
    <radialGradient id="glow" cx="50%" cy="50%" r="50%">
      <stop offset="70%" stop-color="#ffffff" stop-opacity="0" />
      <stop offset="100%" stop-color="#a7e6ff" stop-opacity="0.35" />
    </radialGradient>
  </defs>
  <circle cx="200" cy="200" r="160" fill="url(#ocean)" />
  <circle cx="200" cy="200" r="160" fill="url(#glow)" />
  <path fill="url(#land)" d="M95 210c20-40 70-60 110-50 25 6 50 22 78 18 22-3 36-20 54-30-5 25-22 45-44 58-28 17-62 23-93 20-36-3-67 8-105 17z" />
  <path fill="url(#land)" d="M250 110c-10-20 5-45 28-48 18-2 35 10 43 26-18 3-30 14-43 24-9 7-18 10-28 -2z" />
  <path fill="url(#land)" d="M140 120c-12-10-8-30 6-38 12-7 28-5 40 3-12 5-20 13-28 21-7 6-12 10-18 14z" />
</svg>
